HIERARCHY
ROOT simHips
{
  OFFSET 17.0616 99.1493 0.986275
  CHANNELS 6 Xposition Yposition Zposition Zrotation Xrotation Yrotation
  JOINT simSpine
  {
    OFFSET -0.000355721 21.3001 -0.016921
    CHANNELS 3 Zrotation Xrotation Yrotation
    JOINT simLeftArm
    {
      OFFSET 13.5181 21.3012 0
      CHANNELS 3 Zrotation Xrotation Yrotation
      JOINT simLeftForeArm
      {
        OFFSET 24.5783 0 0
        CHANNELS 3 Zrotation Xrotation Yrotation
        JOINT simLeftHand
        {
          OFFSET 24.5783 0 0
          CHANNELS 3 Zrotation Xrotation Yrotation
          End Site
          {
            OFFSET 7.32568 1.52588e-005 0.0169305
          }
        }
      }
    }
    JOINT simHead
    {
      OFFSET 0 27.4458 -0.00489235
      CHANNELS 3 Zrotation Xrotation Yrotation
      End Site
      {
        OFFSET 0 0 0
      }
    }
    JOINT simRightArm
    {
      OFFSET -13.5174 21.3012 0
      CHANNELS 3 Zrotation Xrotation Yrotation
      JOINT simRightForeArm
      {
        OFFSET -24.5783 0 0
        CHANNELS 3 Zrotation Xrotation Yrotation
        JOINT simRightHand
        {
          OFFSET -24.5783 0 0
          CHANNELS 3 Zrotation Xrotation Yrotation
          End Site
          {
            OFFSET -7.32568 1.52588e-005 0.0169305
          }
        }
      }
    }
  }
  JOINT simRightUpLeg
  {
    OFFSET -8.44614 -9.41038 0.835684
    CHANNELS 3 Zrotation Xrotation Yrotation
    JOINT simRightLeg
    {
      OFFSET 0 -40.9639 0
      CHANNELS 3 Zrotation Xrotation Yrotation
      JOINT simRightFoot
      {
        OFFSET 0 -40.9639 0
        CHANNELS 3 Zrotation Xrotation Yrotation
        End Site
        {
          OFFSET 0.50614 -9.67405 14.6709
        }
      }
    }
  }
  JOINT simLeftUpLeg
  {
    OFFSET 8.44614 -9.41038 0.835684
    CHANNELS 3 Zrotation Xrotation Yrotation
    JOINT simLeftLeg
    {
      OFFSET 0 -40.9639 0
      CHANNELS 3 Zrotation Xrotation Yrotation
      JOINT simLeftFoot
      {
        OFFSET 0 -40.9639 0
        CHANNELS 3 Zrotation Xrotation Yrotation
        End Site
        {
          OFFSET -0.50614 -9.67405 14.6709
        }
      }
    }
  }
}
MOTION
Frames:	14
Frame Time:	0.0333333
52.5415 93.9405 -82.2385 -3.71644 0.216264 -108.503 -1.83886 17.512 -16.0901 -46.7394 8.40355 -21.986 1.15836 5.41216 -24.9072 11.4257 8.42295 -16.6012 29.5622 4.7285 -68.4742 62.7599 49.2967 10.8434 3.40682 4.60728 14.8144 -2.63208 0.179311 15.7383 18.8019 -18.3726 8.11854 1.33161 12.5695 1.40345 0.684661 -5.26789 14.4727 -1.85763 3.71243 21.2419 -2.33517 34.8232 3.49107 5.25731 -24.3357 -1.98209 
54.7498 95.2681 -83.8802 -3.15636 0.0666545 -108.914 -1.47757 16.7721 -16.3789 -50.351 8.19458 -17.8472 -0.612861 4.96771 -20.2902 9.45048 7.15189 -14.6454 28.0325 5.3245 -67.4434 60.7119 49.6331 11.4821 3.6915 4.58148 15.898 -2.04134 0.0637864 15.3948 16.8648 -21.6277 8.59218 2.56364 23.3324 -0.411868 -0.498217 -6.71801 5.54155 -1.29451 3.41668 20.6029 -1.55887 31.0268 2.64727 4.56015 -21.4883 -1.27798 
56.8781 96.34 -85.5948 -2.37509 -0.110165 -108.412 -0.955484 15.7076 -16.9804 -53.4265 9.19332 -13.5603 -2.69975 3.58849 -17.1603 7.40783 5.65999 -12.6495 27.3868 5.58115 -66.8897 60.0707 47.9161 10.838 3.88938 4.25697 15.5772 -1.44938 -0.0571367 13.9755 13.8989 -24.987 10.4995 4.87223 34.432 -1.97234 -1.8563 -8.21211 -0.652249 -0.381499 3.06276 19.7491 -1.12309 27.3224 2.0163 4.19611 -18.9039 -0.795491 
58.9032 97.0489 -87.3563 -1.46366 -0.272507 -107.393 -0.328755 14.6629 -17.3369 -55.9578 11.4489 -9.75739 -3.84552 2.95894 -15.5222 6.02092 4.88223 -11.3694 27.2971 5.42994 -66.5509 60.2751 44.6735 9.45963 3.74816 3.68961 14.5339 -0.951076 -0.396679 12.9297 10.1733 -27.8028 13.0252 8.89121 44.9833 -4.108 -2.636 -8.6741 -4.16181 0.616906 2.32127 18.5774 -0.719019 24.038 1.68734 4.07471 -16.9039 -0.381792 
60.7555 97.4043 -89.1185 -0.426085 -0.44412 -106.295 0.401038 13.6169 -17.3017 -58.0825 14.4651 -6.71566 -4.25876 3.279 -14.7744 5.86906 5.1209 -11.057 27.3538 5.11391 -66.5882 60.2534 41.743 8.41488 3.18664 3.42121 13.3719 -1.1068 -0.514137 12.6456 6.45278 -29.3259 15.3338 12.7023 53.6632 -6.60346 -2.45313 -8.09535 -6.33777 1.46106 2.00841 16.5999 -0.264459 20.221 1.34383 3.21974 -15.8049 -0.0336159 
62.4694 97.4592 -90.8717 0.63475 -0.629363 -105.18 0.972283 12.5877 -17.2008 -59.901 17.4785 -3.94758 -4.23289 4.11908 -14.488 6.61996 6.00359 -11.3314 27.7586 5.11335 -66.8705 59.7663 39.6334 8.00753 2.66858 3.26131 12.4465 -1.85872 -0.343312 12.645 1.63257 -29.2784 16.5813 17.9148 59.0862 -10.8533 -2.50032 -7.56131 -8.61034 2.32903 1.88263 14.7078 0.23358 16.27 1.07812 2.27199 -15.142 0.036768 
64.1402 97.2873 -92.6517 1.7727 -0.838202 -104.303 1.01002 11.3753 -17.0608 -61.4387 19.0568 -0.891696 -3.90788 4.98037 -14.1471 7.0992 6.65988 -11.5938 28.6896 5.68943 -67.0068 59.1893 38.7815 8.04784 2.32942 3.16253 11.9922 -2.83009 0.0371098 12.5046 -4.01053 -28.0925 16.7317 23.3216 60.9827 -15.9672 -3.58939 -5.86912 -11.7002 3.32983 2.06023 13.3997 0.632541 11.8028 0.822943 0.822429 -14.6299 -0.398169 
65.7897 96.9449 -94.5793 2.91089 -1.05825 -103.961 0.624722 10.1348 -16.7329 -62.7197 19.3643 2.50569 -3.42619 5.6411 -13.8276 7.3609 7.02718 -11.8734 29.9075 6.6575 -66.5619 58.716 38.6191 8.26383 1.85386 3.24162 12.1299 -3.63194 0.411752 12.552 -9.52833 -25.8028 16.4999 26.1154 59.7427 -19.273 -4.37606 -3.76872 -15.6741 4.411 2.89652 12.6685 0.976164 6.28872 0.675686 -1.21429 -13.7805 -0.956975 
67.446 96.3886 -96.8113 4.07272 -1.30492 -104.409 -0.000784528 8.8619 -16.1372 -63.6259 17.8608 6.11068 -3.12081 5.64112 -13.3179 6.7768 6.62705 -11.6908 30.8874 7.6235 -65.4738 58.287 38.3803 8.49472 1.43829 3.22974 12.898 -3.81116 0.516382 12.618 -13.9823 -22.8345 16.7016 25.1165 56.3034 -19.6149 -3.31533 -2.40758 -20.1733 6.0424 2.47474 11.6481 1.35311 3.82662 0.728905 -3.94277 -14.6129 -0.857417 
69.1315 95.6675 -99.4615 5.05815 -1.55945 -105.483 -0.741423 8.14147 -15.4454 -63.816 15.3489 9.19504 -3.07757 5.03074 -12.6265 5.85955 5.85274 -10.8066 31.5065 8.17353 -63.6732 57.6273 38.0512 9.28959 1.31116 3.05338 14.1141 -3.53092 0.382754 12.7987 -17.0831 -19.2108 17.4723 21.4246 51.0693 -17.9203 -1.37419 -1.42847 -23.8763 8.16257 1.35456 10.087 1.62235 3.53213 1.10582 -6.39719 -15.7487 0.195503 
70.9157 94.8812 -102.638 5.89434 -1.79241 -106.75 -2.1745 8.14509 -14.9939 -62.6903 12.6963 11.4783 -3.2623 4.12842 -11.7647 4.92805 4.95115 -9.78505 32.8621 8.84248 -60.9246 57.2814 38.1163 11.0041 1.27055 3.03448 15.495 -3.83726 0.599489 12.9564 -18.865 -15.1811 19.1706 17.6174 44.3794 -15.1667 1.8035 0.817059 -25.5242 10.7229 -0.155076 8.37308 1.69394 4.50363 1.78711 -7.73727 -16.2217 1.93551 
72.8784 94.0306 -106.545 6.72152 -1.93301 -108.134 -3.93154 8.19097 -14.4678 -60.8711 10.9397 13.0648 -3.58619 3.16803 -10.7931 4.1901 4.11226 -8.94404 34.4141 10.1932 -57.494 57.4908 38.2632 12.7822 1.15452 3.35354 16.9524 -4.68206 1.15909 13.2718 -18.5169 -11.0342 21.2101 12.8594 37.5657 -11.2171 5.72798 2.52307 -24.4823 14.1172 -1.49172 6.58874 1.29493 5.63562 2.69901 -9.19481 -16.0235 3.90949 
75.0988 93.0261 -111.056 7.47061 -1.98223 -110.077 -5.94389 7.77314 -13.4845 -58.8832 10.1372 14.4737 -3.71222 2.47003 -9.94924 3.68209 3.50818 -8.26153 35.1252 12.54 -52.6249 58.3344 38.6756 13.9747 0.96264 3.90435 18.5677 -5.9136 1.9668 13.6431 -16.5194 -7.77429 21.9606 8.57047 33.4901 -7.92397 5.65804 -6.79242 -18.6978 18.1243 -2.55479 4.52146 0.602153 7.08726 3.83948 -10.1662 -15.0981 6.7467 
77.5224 91.9916 -115.511 7.8861 -1.99123 -112.719 -6.86799 7.56508 -11.758 -58.0905 10.3464 15.0063 -3.62813 1.94628 -9.64812 3.51029 3.10432 -8.21775 33.2984 14.3947 -45.5754 58.1044 38.7817 15.0733 0.570541 4.56407 20.2953 -7.11669 2.70369 14.3595 -14.6332 -6.16014 19.5199 6.22346 30.3901 -6.61906 4.31462 -16.3821 -13.3871 21.9901 -5.08038 2.40396 -0.0850541 12.7823 4.81539 -9.94688 -15.2525 10.4123 
